<svg width="986" height="544" viewBox="0 0 986 544" fill="none" xmlns="http://www.w3.org/2000/svg">
<path d="M87.9077 529H79.4702L94.8324 485.364H104.591L119.974 529H111.537L99.8821 494.312H99.5412L87.9077 529ZM88.1847 511.891H111.196V518.24H88.1847V511.891ZM159.229 485.364H167.134V513.872C167.134 516.997 166.395 519.746 164.918 522.118C163.455 524.49 161.395 526.344 158.739 527.679C156.083 529 152.979 529.661 149.428 529.661C145.863 529.661 142.752 529 140.096 527.679C137.439 526.344 135.38 524.49 133.917 522.118C132.453 519.746 131.722 516.997 131.722 513.872V485.364H139.627V513.212C139.627 515.03 140.025 516.649 140.82 518.07C141.63 519.49 142.766 520.605 144.229 521.415C145.692 522.21 147.425 522.608 149.428 522.608C151.431 522.608 153.164 522.21 154.627 521.415C156.104 520.605 157.24 519.49 158.036 518.07C158.831 516.649 159.229 515.03 159.229 513.212V485.364ZM179.808 491.99V485.364H214.624V491.99H201.136V529H193.295V491.99H179.808ZM227.335 529V485.364H235.24V503.837H255.46V485.364H263.386V529H255.46V510.463H235.24V529H227.335ZM277.984 529V485.364H306.364V491.99H285.888V503.837H304.894V510.463H285.888V522.374H306.535V529H277.984ZM356.288 485.364V529H349.257L328.696 499.277H328.334V529H320.429V485.364H327.503L348.043 515.108H348.426V485.364H356.288ZM368.984 491.99V485.364H403.799V491.99H390.312V529H382.471V491.99H368.984ZM424.416 485.364V529H416.511V485.364H424.416ZM476.327 500.087H468.358C468.131 498.78 467.712 497.622 467.101 496.614C466.49 495.591 465.73 494.724 464.821 494.014C463.912 493.304 462.875 492.771 461.71 492.416C460.56 492.047 459.317 491.862 457.982 491.862C455.609 491.862 453.507 492.459 451.675 493.652C449.842 494.831 448.408 496.564 447.371 498.851C446.334 501.124 445.815 503.901 445.815 507.182C445.815 510.52 446.334 513.332 447.371 515.619C448.422 517.892 449.857 519.611 451.675 520.776C453.507 521.926 455.602 522.501 457.96 522.501C459.267 522.501 460.489 522.331 461.625 521.99C462.776 521.635 463.805 521.116 464.714 520.435C465.638 519.753 466.412 518.915 467.037 517.92C467.676 516.926 468.116 515.79 468.358 514.511L476.327 514.554C476.028 516.628 475.382 518.574 474.388 520.392C473.408 522.21 472.122 523.815 470.531 525.207C468.94 526.585 467.08 527.665 464.949 528.446C462.818 529.213 460.453 529.597 457.854 529.597C454.018 529.597 450.595 528.709 447.584 526.933C444.572 525.158 442.2 522.594 440.467 519.241C438.734 515.889 437.868 511.869 437.868 507.182C437.868 502.48 438.741 498.46 440.489 495.122C442.236 491.77 444.615 489.206 447.626 487.43C450.638 485.655 454.047 484.767 457.854 484.767C460.283 484.767 462.541 485.108 464.629 485.79C466.717 486.472 468.578 487.473 470.212 488.794C471.845 490.101 473.188 491.706 474.239 493.609C475.304 495.499 476 497.658 476.327 500.087ZM516.052 529H507.615L522.977 485.364H532.735L548.119 529H539.681L528.027 494.312H527.686L516.052 529ZM516.329 511.891H539.341V518.24H516.329V511.891ZM552.43 485.364H561.358L572.033 504.668H572.459L583.134 485.364H592.061L576.188 512.722V529H568.304V512.722L552.43 485.364ZM631.167 485.364H639.071V513.872C639.071 516.997 638.333 519.746 636.855 522.118C635.392 524.49 633.333 526.344 630.676 527.679C628.02 529 624.917 529.661 621.365 529.661C617.8 529.661 614.689 529 612.033 527.679C609.377 526.344 607.317 524.49 605.854 522.118C604.391 519.746 603.659 516.997 603.659 513.872V485.364H611.564V513.212C611.564 515.03 611.962 516.649 612.757 518.07C613.567 519.49 614.703 520.605 616.167 521.415C617.63 522.21 619.363 522.608 621.365 522.608C623.368 522.608 625.101 522.21 626.564 521.415C628.042 520.605 629.178 519.49 629.973 518.07C630.769 516.649 631.167 515.03 631.167 513.212V485.364ZM653.663 529V485.364H670.027C673.379 485.364 676.192 485.946 678.464 487.111C680.751 488.276 682.477 489.909 683.642 492.011C684.821 494.099 685.411 496.536 685.411 499.32C685.411 502.118 684.814 504.547 683.621 506.607C682.442 508.652 680.702 510.236 678.401 511.358C676.099 512.466 673.273 513.02 669.92 513.02H658.266V506.457H668.855C670.815 506.457 672.42 506.187 673.67 505.648C674.92 505.094 675.844 504.291 676.44 503.24C677.051 502.175 677.357 500.868 677.357 499.32C677.357 497.771 677.051 496.45 676.44 495.357C675.83 494.249 674.899 493.411 673.649 492.842C672.399 492.26 670.787 491.969 668.812 491.969H661.568V529H653.663ZM676.206 509.227L687.009 529H678.188L667.577 509.227H676.206ZM703.412 485.364L714.768 519.71H715.216L726.551 485.364H735.244L719.86 529H710.102L694.74 485.364H703.412ZM746.991 529V485.364H775.372V491.99H754.896V503.837H773.902V510.463H754.896V522.374H775.543V529H746.991ZM804.224 529H789.437V485.364H804.522C808.854 485.364 812.576 486.237 815.687 487.984C818.812 489.717 821.212 492.21 822.888 495.463C824.565 498.716 825.403 502.608 825.403 507.139C825.403 511.685 824.558 515.591 822.867 518.858C821.191 522.125 818.769 524.632 815.602 526.379C812.448 528.126 808.656 529 804.224 529ZM797.342 522.161H803.84C806.88 522.161 809.415 521.607 811.447 520.499C813.478 519.376 815.005 517.707 816.028 515.491C817.05 513.261 817.562 510.477 817.562 507.139C817.562 503.801 817.05 501.031 816.028 498.83C815.005 496.614 813.492 494.959 811.489 493.865C809.501 492.757 807.029 492.203 804.075 492.203H797.342V522.161ZM842.173 529H833.736L849.098 485.364H858.857L874.24 529H865.803L854.148 494.312H853.807L842.173 529ZM842.45 511.891H865.462V518.24H842.45V511.891Z" fill="#0F4424"/>
<path d="M2 409V406.5L8.25 404.25C11.5833 402.917 14.1667 401.333 16 399.5C17.8333 397.5 19.3333 394.75 20.5 391.25L72 243.5H93.25L144 392.25C145.333 395.917 146.833 398.75 148.5 400.75C150.167 402.583 152.75 404.167 156.25 405.5L159.25 406.5V409H95.75V406.5L99.5 405.25C103 403.917 105.083 402.083 105.75 399.75C106.583 397.25 106.5 394.333 105.5 391L93.75 355H38.25L26.25 390.25C25.0833 393.917 24.6667 396.833 25 399C25.5 401.167 27.5 402.917 31 404.25L36.5 406.5V409H2ZM40 350H92.25L67 272.25L40 350ZM176.682 469C170.015 469 164.682 467.333 160.682 464C156.848 460.667 154.932 456.417 154.932 451.25C154.932 446.583 156.598 442.833 159.932 440C163.265 437.167 167.015 435.75 171.182 435.75C175.348 435.75 178.848 436.583 181.682 438.25C184.515 440.083 187.015 442.667 189.182 446L190.932 448C194.598 453 198.265 452.917 201.932 447.75C203.432 445.25 205.098 441.917 206.932 437.75C208.932 433.75 211.182 428.333 213.682 421.5L165.182 305.5C164.015 302.333 162.765 299.833 161.432 298C160.098 296 157.932 294.333 154.932 293L150.432 291.25V288.75H212.682V291L207.682 293C204.015 294.167 202.098 296.083 201.932 298.75C201.932 301.25 202.598 304.417 203.932 308.25L229.932 375.75L254.682 307.5C256.015 303.667 256.515 300.5 256.182 298C255.848 295.333 253.765 293.5 249.932 292.5L244.682 291.25V288.75H279.432V291.25L273.932 293C270.098 294.167 267.432 295.833 265.932 298C264.432 300.167 263.015 303.167 261.682 307L221.432 416.75C214.932 434.25 208.432 447.333 201.932 456C195.432 464.667 187.015 469 176.682 469ZM332.965 412.75C326.465 412.75 320.465 411.5 314.965 409C309.632 406.5 305.382 402.5 302.215 397C299.215 391.333 297.798 383.917 297.965 374.75L298.715 310.5C298.715 306.667 298.048 303.917 296.715 302.25C295.382 300.583 293.298 299.417 290.465 298.75L287.465 297.75V295.25L332.215 286.5L334.715 289L333.465 324.5V384.75C333.465 390.083 334.965 394 337.965 396.5C341.132 399 345.048 400.25 349.715 400.25C354.382 400.25 358.548 399.583 362.215 398.25C365.882 396.917 369.548 394.917 373.215 392.25L374.215 310.75C374.215 306.917 373.632 304.25 372.465 302.75C371.298 301.083 369.132 299.917 365.965 299.25L363.465 298.5V296L407.215 286.5L409.715 289L408.965 324.5V392.25C408.965 395.917 409.465 398.75 410.465 400.75C411.465 402.75 413.632 404.417 416.965 405.75L419.465 406.5V409L375.715 411.5L373.465 396.75C367.965 401.25 361.965 405.083 355.465 408.25C349.132 411.25 341.632 412.75 332.965 412.75ZM429.561 409V406.5L433.311 405.5C436.644 404.5 438.894 403 440.061 401C441.394 399 442.061 396.417 442.061 393.25V315C442.061 311.333 441.394 308.667 440.061 307C438.894 305.167 436.644 303.917 433.311 303.25L429.561 302.25V299.75L472.561 285.25L475.061 287.75L477.311 309.25V311.25C479.644 306.583 482.644 302.333 486.311 298.5C490.144 294.5 494.311 291.25 498.811 288.75C503.477 286.25 508.061 285 512.561 285C518.894 285 523.727 286.75 527.061 290.25C530.394 293.75 532.061 298.167 532.061 303.5C532.061 309.167 530.394 313.583 527.061 316.75C523.894 319.75 520.061 321.25 515.561 321.25C508.561 321.25 502.394 317.75 497.061 310.75L496.561 310.25C494.894 307.917 492.977 306.667 490.811 306.5C488.644 306.167 486.644 307.167 484.811 309.5C483.144 311 481.727 312.833 480.561 315C479.561 317 478.561 319.333 477.561 322V391.75C477.561 398.417 480.477 402.583 486.311 404.25L494.311 406.5V409H429.561ZM594.926 409.75L541.426 260.75C540.259 257.417 538.676 254.833 536.676 253C534.842 251 532.259 249.5 528.926 248.5L522.926 246.5V244H594.926V246.5L587.176 248.75C583.342 249.75 581.176 251.5 580.676 254C580.342 256.5 580.759 259.583 581.926 263.25L618.926 373L656.176 263C657.509 259.167 658.092 256 657.926 253.5C657.926 251 656.009 249.25 652.176 248.25L645.676 246.5V244H680.676V246.5L673.926 248.5C670.759 249.333 668.509 250.833 667.176 253C665.842 255 664.592 257.667 663.426 261L613.426 409.75H594.926ZM707.852 272C702.185 272 697.352 270.25 693.352 266.75C689.518 263.083 687.602 258.5 687.602 253C687.602 247.333 689.518 242.75 693.352 239.25C697.352 235.75 702.185 234 707.852 234C713.518 234 718.268 235.75 722.102 239.25C725.935 242.75 727.852 247.333 727.852 253C727.852 258.5 725.935 263.083 722.102 266.75C718.268 270.25 713.518 272 707.852 272ZM678.352 409V406.5L681.852 405.5C685.185 404.5 687.435 403 688.602 401C689.935 399 690.602 396.333 690.602 393V314.75C690.602 311.25 689.935 308.667 688.602 307C687.435 305.167 685.185 303.917 681.852 303.25L678.352 302.5V300L724.102 285.25L726.602 287.75L725.852 323.25V393.25C725.852 396.583 726.435 399.25 727.602 401.25C728.935 403.25 731.185 404.75 734.352 405.75L736.852 406.5V409H678.352ZM795.42 412.75C784.753 412.75 776.42 410.083 770.42 404.75C764.587 399.417 761.67 390.917 761.67 379.25V293.75H744.42V291.25L750.42 290.25C755.587 289.083 760.003 287.417 763.67 285.25C767.503 283.083 771.253 280.167 774.92 276.5L795.42 253.75H797.92L797.17 288.75H825.17V293.75H796.92V383.75C796.92 389.583 798.17 394 800.67 397C803.337 400 806.67 401.5 810.67 401.5C814.17 401.5 817.253 400.667 819.92 399C822.587 397.167 825.253 394.75 827.92 391.75L830.42 394.25C827.087 399.917 822.503 404.417 816.67 407.75C810.837 411.083 803.753 412.75 795.42 412.75ZM874.752 412.75C865.085 412.75 856.919 410 850.252 404.5C843.752 399 840.502 391.083 840.502 380.75C840.502 372.917 844.502 365.75 852.502 359.25C860.502 352.583 873.085 347.583 890.252 344.25C892.919 343.75 895.919 343.25 899.252 342.75C902.585 342.083 906.085 341.417 909.752 340.75V321C909.752 309.667 908.335 301.75 905.502 297.25C902.835 292.583 898.585 290.25 892.752 290.25C888.752 290.25 885.585 291.583 883.252 294.25C880.919 296.75 879.419 301.167 878.752 307.5L878.252 310.25C877.919 317.417 876.169 322.667 873.002 326C869.835 329.333 865.919 331 861.252 331C856.919 331 853.335 329.667 850.502 327C847.669 324.333 846.252 320.75 846.252 316.25C846.252 309.417 848.585 303.667 853.252 299C858.085 294.333 864.419 290.833 872.252 288.5C880.085 286.167 888.585 285 897.752 285C912.585 285 924.002 288.667 932.002 296C940.169 303.167 944.252 314.917 944.252 331.25V386.5C944.252 394 947.752 397.75 954.752 397.75H960.252L962.502 399.75C959.335 403.75 955.835 406.833 952.002 409C948.335 411.167 943.085 412.25 936.252 412.25C928.919 412.25 923.085 410.583 918.752 407.25C914.585 403.75 911.835 399.167 910.502 393.5C905.502 398.833 900.335 403.417 895.002 407.25C889.835 410.917 883.085 412.75 874.752 412.75ZM890.002 397.5C893.335 397.5 896.419 396.75 899.252 395.25C902.252 393.583 905.752 391.083 909.752 387.75V345.75C908.085 346.083 906.419 346.417 904.752 346.75C903.085 347.083 901.169 347.417 899.002 347.75C891.335 349.75 885.169 353.167 880.502 358C876.002 362.667 873.752 369 873.752 377C873.752 383.833 875.335 389 878.502 392.5C881.669 395.833 885.502 397.5 890.002 397.5Z" fill="#0F4424"/>
<path d="M450.298 235.183L460.318 253L455.013 248.843L450.298 245.873L445.583 242.31L439.099 238.746L432.026 235.183L425.543 232.214L420.828 230.432L411.397 227.462L400.788 223.899L390.179 220.336L372.497 212.615L363.656 206.676L358.94 203.707L348.921 193.61L343.026 186.484L335.364 176.387L328.291 163.322L322.397 149.662L318.861 134.221L316.503 125.312L314.735 118.779L312.377 113.434L310.609 107.495L308.252 102.15L307.073 99.1807L305.894 95.6173L303.536 92.054L301.768 89.6784L300 87.8967L305.894 87.3028H312.377L318.861 87.8967L325.344 88.4906L333.007 89.6784L338.311 90.8662L344.795 92.054L348.921 93.2418L353.636 94.4296L366.013 99.1807L375.444 102.15L384.285 106.901L391.947 111.653L399.02 116.404L408.45 124.124L415.523 131.251L423.185 138.972L430.848 149.662L434.974 155.007L439.099 161.54L442.046 166.885L446.172 174.606L449.119 181.732L452.066 190.047L455.013 198.955L457.96 207.864L460.318 215.584L462.086 222.711L463.265 228.056L459.139 220.93L455.013 214.991L451.477 210.833L447.94 205.488L443.225 200.143L434.974 191.235L427.311 182.92L420.828 176.981L414.934 171.042L407.861 165.103L401.377 160.352L391.947 153.819L383.106 147.88L375.444 143.129L369.55 139.566L364.834 137.19L359.53 134.815L363.066 137.784L367.192 141.347L375.444 148.474L384.285 156.195L393.126 163.915L401.377 172.23L419.649 191.829L425.543 198.361L430.848 205.488L440.278 218.554L450.298 235.183Z" fill="#6DA938"/>
<path d="M505.702 234.589L495.682 252.406L500.987 248.249L505.702 245.279L510.417 241.716L516.901 238.153L523.974 234.589L530.457 231.62L535.172 229.838L544.603 226.869L555.212 223.305L565.821 219.742L583.503 212.021L592.344 206.082L597.06 203.113L607.079 193.016L612.974 185.89L620.636 175.793L627.709 162.728L633.603 149.068L637.139 133.627L639.497 124.718L641.265 118.185L643.623 112.84L645.391 106.901L647.748 101.556L648.927 98.5869L650.106 95.0235L652.464 91.4601L654.232 89.0845L656 87.3028L650.106 86.7089H643.623L637.139 87.3028L630.656 87.8967L622.993 89.0845L617.689 90.2723L611.205 91.4601L607.079 92.6479L602.364 93.8357L589.987 98.5869L580.556 101.556L571.715 106.308L564.053 111.059L556.98 115.81L547.55 123.531L540.477 130.657L532.815 138.378L525.152 149.068L521.026 154.413L516.901 160.946L513.954 166.291L509.828 174.012L506.881 181.138L503.934 189.453L500.987 198.361L498.04 207.27L495.682 214.991L493.914 222.117L492.735 227.462L496.861 220.336L500.987 214.397L504.523 210.239L508.06 204.894L512.775 199.549L521.026 190.641L528.689 182.326L535.172 176.387L541.066 170.448L548.139 164.509L554.623 159.758L564.053 153.225L572.894 147.286L580.556 142.535L586.45 138.972L591.166 136.596L596.47 134.221L592.934 137.19L588.808 140.754L580.556 147.88L571.715 155.601L562.874 163.322L554.623 171.636L536.351 191.235L530.457 197.768L525.152 204.894L515.722 217.96L505.702 234.589Z" fill="#6DA938"/>
<path d="M478.629 69.9399L477.371 56.4202L476.742 69.9399L476.113 81.9577L472.106 183.514L466.801 176.387L457.96 164.509L452.066 155.601L443.815 143.129L439.689 135.408L432.616 123.531L429.669 115.81L426.722 107.495L425.543 101.556L424.364 97.3991V86.115L425.543 78.3944L426.722 74.831L429.079 67.1103L434.973 55.2324L438.51 49.2934L443.815 41.5728L449.709 33.2582L454.424 26.7254L457.96 23.162L464.444 15.4413L474.464 4.15728L478.589 0L483.305 4.75117L491.556 14.2535L499.219 23.162L506.291 31.4765L513.364 41.5728L519.848 52.8568L522.205 57.608L526.921 70.0798L528.689 77.8005L529.278 83.7394L529.868 90.8662L528.689 102.744L528.099 107.495L526.921 111.059L524.563 116.404L521.026 123.531L516.311 131.251L511.596 139.566L506.881 147.286L500.397 156.789L496.272 163.322L492.735 169.261L489.199 174.012L485.662 178.169L482.715 181.732L478.629 81.9577V69.9399Z" fill="#6DA938"/>
</svg>
